
<svg width="24px" height="24px" viewBox="0 0 24 24" version="1.1" xmlns="http://www.w3.org/2000/svg" xmlns:xlink="http://www.w3.org/1999/xlink">
    <!-- Generator: Sketch 47.1 (45422) - http://www.bohemiancoding.com/sketch -->
    <desc>Created with Sketch.</desc>
    <defs></defs>
    <g id="Page-1" stroke="none" stroke-width="1" fill="none" fill-rule="evenodd">
        <g id="Calendario" transform="translate(-40.000000, -366.000000)" fill-rule="nonzero" fill="#05869B">
            <g id="Card-calendario" transform="translate(15.000000, 353.000000)">
                <g id="Header" transform="translate(25.000000, 13.000000)">
                    <g id="i-calendar">
                        <path d="M8.1818182,14.7272727 L6,14.7272727 L6,16.9090909 L8.1818182,16.9090909 L8.1818182,14.7272727 Z M8.1818182,18.5454545 L6,18.5454545 L6,20.7272727 L8.1818182,20.7272727 L8.1818182,18.5454545 Z M8.1818182,10.9090909 L6,10.9090909 L6,13.0909091 L8.1818182,13.0909091 L8.1818182,10.9090909 Z M4.9090909,18.5454545 L2.7272727,18.5454545 L2.7272727,20.7272727 L4.9090909,20.7272727 L4.9090909,18.5454545 Z M22.9090909,7.6363636 L1.09090909,7.6363636 L1.09090909,4.3641818 C1.09090909,3.7614545 1.57963636,3.2727273 2.1818182,3.2727273 L4.3636364,3.2727273 L4.3636364,4.9090909 C4.3636364,5.2107273 4.6074545,5.4545455 4.9090909,5.4545455 C5.2107273,5.4545455 5.4545455,5.2107273 5.4545455,4.9090909 L5.4545455,3.2727273 L18.5454545,3.2727273 L18.5454545,4.9090909 C18.5454545,5.2107273 18.7892727,5.4545455 19.0909091,5.4545455 C19.3925455,5.4545455 19.6363636,5.2107273 19.6363636,4.9090909 L19.6363636,3.2727273 L21.8181818,3.2727273 C22.4203636,3.2727273 22.9090909,3.7614545 22.9090909,4.3641818 L22.9090909,7.6363636 Z M22.9090909,21.8181818 C22.9090909,22.4203636 22.4203636,22.9090909 21.8181818,22.9090909 L2.1818182,22.9090909 C1.57963636,22.9090909 1.09090909,22.4203636 1.09090909,21.8181818 L1.09090909,8.7272727 L22.9090909,8.7272727 L22.9090909,21.8181818 Z M21.8181818,2.1818182 L19.6363636,2.1818182 L19.6363636,0.54545455 C19.6363636,0.24436364 19.3925455,0 19.0909091,0 C18.7892727,0 18.5454545,0.24436364 18.5454545,0.54545455 L18.5454545,2.1818182 L5.4545455,2.1818182 L5.4545455,0.54545455 C5.4545455,0.24436364 5.2107273,0 4.9090909,0 C4.6074545,0 4.3636364,0.24436364 4.3636364,0.54545455 L4.3636364,2.1818182 L2.1818182,2.1818182 C0.97690909,2.1818182 0,3.1587273 0,4.3641818 L0,21.8181818 C0,23.0230909 0.97690909,24 2.1818182,24 L21.8181818,24 C23.0230909,24 24,23.0230909 24,21.8181818 L24,4.3641818 C24,3.1587273 23.0230909,2.1818182 21.8181818,2.1818182 L21.8181818,2.1818182 Z M4.9090909,10.9090909 L2.7272727,10.9090909 L2.7272727,13.0909091 L4.9090909,13.0909091 L4.9090909,10.9090909 Z M4.9090909,14.7272727 L2.7272727,14.7272727 L2.7272727,16.9090909 L4.9090909,16.9090909 L4.9090909,14.7272727 Z M11.4545455,18.5454545 L9.2727273,18.5454545 L9.2727273,20.7272727 L11.4545455,20.7272727 L11.4545455,18.5454545 Z M11.4545455,10.9090909 L9.2727273,10.9090909 L9.2727273,13.0909091 L11.4545455,13.0909091 L11.4545455,10.9090909 Z M11.4545455,14.7272727 L9.2727273,14.7272727 L9.2727273,16.9090909 L11.4545455,16.9090909 L11.4545455,14.7272727 Z M21.2727273,14.7272727 L19.0909091,14.7272727 L19.0909091,16.9090909 L21.2727273,16.9090909 L21.2727273,14.7272727 Z M18,14.7272727 L15.8181818,14.7272727 L15.8181818,16.9090909 L18,16.9090909 L18,14.7272727 Z M21.2727273,10.9090909 L19.0909091,10.9090909 L19.0909091,13.0909091 L21.2727273,13.0909091 L21.2727273,10.9090909 Z M18,10.9090909 L15.8181818,10.9090909 L15.8181818,13.0909091 L18,13.0909091 L18,10.9090909 Z M14.7272727,18.5454545 L12.5454545,18.5454545 L12.5454545,20.7272727 L14.7272727,20.7272727 L14.7272727,18.5454545 Z M14.7272727,10.9090909 L12.5454545,10.9090909 L12.5454545,13.0909091 L14.7272727,13.0909091 L14.7272727,10.9090909 Z M14.7272727,14.7272727 L12.5454545,14.7272727 L12.5454545,16.9090909 L14.7272727,16.9090909 L14.7272727,14.7272727 Z"></path>
                    </g>
                </g>
            </g>
        </g>
    </g>
</svg>
