
<svg width="34px" height="20px" viewBox="0 0 34 20" version="1.1" xmlns="http://www.w3.org/2000/svg" xmlns:xlink="http://www.w3.org/1999/xlink">
    <!-- Generator: Sketch 47.1 (45422) - http://www.bohemiancoding.com/sketch -->
    <desc>Created with Sketch.</desc>
    <defs></defs>
    <g id="Page-1" stroke="none" stroke-width="1" fill="none" fill-rule="evenodd">
        <g id="EscolhaCurso" transform="translate(-34.000000, -278.000000)" fill-rule="nonzero" fill="#FFFFFF">
            <g id="Lista-opcoes" transform="translate(15.000000, 265.000000)">
                <g id="Opcao-1">
                    <g id="i-hat" transform="translate(19.411765, 13.000000)">
                        <path d="M16.3786765,9.48314392 L2.82978857,5.35636346 L16.3786765,1.23017809 L29.9283088,5.35636346 L16.3786765,9.48314392 Z M27.3449449,15.2674214 L22.4961121,14.2979196 L22.4931342,14.3092274 C22.4410203,14.3003001 22.3911397,14.2836359 22.3345589,14.2836359 C22.1819394,14.2836359 22.0471875,14.3294626 21.9288143,14.3931438 L21.9213695,14.3836214 L16.4092003,17.6884976 L11.6139706,14.4026662 L11.6065258,14.4109984 C11.4821968,14.3360093 11.3355331,14.2836359 11.1672794,14.2836359 C11.111443,14.2836359 11.060818,14.3003001 11.0087041,14.3092274 L11.005726,14.2979196 L6.08542286,15.2811098 L7.22895216,7.96610279 L16.0585477,10.6549972 L16.0607812,10.6514263 C16.1583089,10.6883257 16.2640257,10.7127269 16.3786765,10.7127269 C16.4933272,10.7127269 16.5997886,10.6883257 16.6965717,10.6514263 L16.6988052,10.6549972 L25.6251839,7.93634525 L27.3449449,15.2674214 Z M32.7573529,5.35636346 C32.7573529,5.11949317 32.5816544,4.9189271 32.3307628,4.82310769 L32.3329963,4.81953681 L32.3106618,4.81239505 C32.3039614,4.81001436 32.2965165,4.80822897 32.2898161,4.80644348 L16.6988052,0.0583247971 L16.6965717,0.0618957854 C16.5997886,0.0244011717 16.4933272,0 16.3786765,0 C16.2640257,0 16.1583089,0.0244011717 16.0607812,0.0618957854 L16.0585477,0.0583247971 L0.468281251,4.80644348 C0.460836392,4.80822897 0.453391547,4.81001436 0.447435659,4.81239505 L0.424356616,4.81953681 L0.426590067,4.82310769 C0.175698526,4.9189271 0,5.11949317 0,5.35636346 C0,5.59382895 0.175698526,5.79439502 0.426590067,5.89021432 L0.424356616,5.89378531 L0.447435659,5.90033198 C0.453391547,5.90271256 0.460836392,5.90449795 0.468281251,5.90687864 L1.86568015,6.33300706 L0.921672798,11.9940882 C0.381176474,12.1720384 0,12.5969766 0,13.0933329 C0,13.7509754 0.666314341,14.2836359 1.48897059,14.2836359 C2.31088235,14.2836359 2.9779412,13.7509754 2.9779412,13.0933329 C2.9779412,12.7106505 2.74789518,12.3737948 2.39649816,12.1559693 L3.29509189,6.76806283 L5.79656251,7.53045193 L4.47361218,15.9905304 L4.48626839,15.9923159 C4.48180152,16.0179073 4.4669118,16.0417134 4.4669118,16.0690904 C4.4669118,16.3982092 4.79969675,16.6642419 5.21139703,16.6642419 C5.26797799,16.6642419 5.31785843,16.6505534 5.36997238,16.6404359 L5.37295043,16.6505534 L10.9766912,15.5298831 L15.9319853,18.9258175 L15.9394301,18.9186758 C16.0645037,18.9930697 16.2111672,19.0448479 16.3786765,19.0448479 C16.531296,19.0448479 16.6660479,18.9990213 16.7844209,18.9359352 L16.7918658,18.9448625 L22.4968567,15.5245268 L28.1288879,16.6505534 L28.1318658,16.6386504 C28.1839797,16.6481728 28.2346047,16.6642419 28.2904411,16.6642419 C28.7021416,16.6642419 29.0349265,16.3982092 29.0349265,16.0690904 C29.0349265,16.0310007 29.0192922,15.997077 29.0111029,15.961368 L29.0215257,15.9595825 L27.0397059,7.50605065 L32.2898161,5.90687864 C32.2965165,5.90449795 32.3039614,5.90271256 32.3106618,5.90033198 L32.3329963,5.89378531 L32.3307628,5.89021432 C32.5816544,5.79439502 32.7573529,5.59382895 32.7573529,5.35636346 L32.7573529,5.35636346 Z"></path>
                    </g>
                </g>
            </g>
        </g>
    </g>
</svg>
