<?xml version="1.0" encoding="UTF-8"?>
<svg width="24px" height="24px" viewBox="0 0 24 24" version="1.1" xmlns="http://www.w3.org/2000/svg" xmlns:xlink="http://www.w3.org/1999/xlink">
    <!-- Generator: Sketch 47.1 (45422) - http://www.bohemiancoding.com/sketch -->
    <title>i-school</title>
    <desc>Created with Sketch.</desc>
    <defs></defs>
    <g id="Foundations" stroke="none" stroke-width="1" fill="none" fill-rule="evenodd">
        <g id="PG-icons" transform="translate(-263.000000, -248.000000)" fill="#FFFFFF">
            <g id="Group-67" transform="translate(255.000000, 200.000000)">
                <g id="Group-20" transform="translate(0.000000, 40.000000)">
                    <path d="M9.09090909,15.6363636 L30.9090909,15.6363636 L30.9090909,16.7272727 L9.09090909,16.7272727 L9.09090909,15.6363636 Z M26.5454545,17.8181818 L28.7272727,17.8181818 L28.7272727,27.6363636 L26.5454545,27.6363636 L26.5454545,17.8181818 Z M23.2727273,17.8181818 L25.4545455,17.8181818 L25.4545455,27.6363636 L23.2727273,27.6363636 L23.2727273,17.8181818 Z M17.8181818,17.8181818 L22.1818182,17.8181818 L22.1818182,27.6363636 L17.8181818,27.6363636 L17.8181818,17.8181818 Z M14.5454545,17.8181818 L16.7272727,17.8181818 L16.7272727,27.6363636 L14.5454545,27.6363636 L14.5454545,17.8181818 Z M11.2727273,17.8181818 L13.4545455,17.8181818 L13.4545455,27.6363636 L11.2727273,27.6363636 L11.2727273,17.8181818 Z M29.9703636,28.7272727 L30.6974545,30.9090909 L9.30254545,30.9090909 L10.0296364,28.7272727 L29.9703636,28.7272727 Z M20,9.17381818 L29.4003636,14.5454545 L10.5996364,14.5454545 L20,9.17381818 Z M31.4545455,17.8181818 C31.7561818,17.8181818 32,17.5743636 32,17.2727273 L32,15.0914545 C32,14.8885455 31.8849091,14.7189091 31.7207273,14.6250909 L31.7250909,14.6174545 L20.2705455,8.072 L20.2661818,8.07963636 C20.1865455,8.03381818 20.0992727,8 20,8 C19.9007273,8 19.8134545,8.03381818 19.7338182,8.07963636 L19.7294545,8.072 L8.27490909,14.6174545 L8.27927273,14.6250909 C8.11509091,14.7189091 8,14.8885455 8,15.0914545 L8,17.2727273 C8,17.5743636 8.24381818,17.8181818 8.54545455,17.8181818 L10.1818182,17.8181818 L10.1818182,27.6363636 L9.63636364,27.6363636 C9.39581818,27.6363636 9.19727273,27.7950909 9.12527273,28.0116364 L9.11872727,28.0094545 L8.02781818,31.2821818 L8.03381818,31.2843636 C8.01581818,31.3383636 8,31.3945455 8,31.4545455 C8,31.7561818 8.24381818,32 8.54545455,32 L31.4545455,32 C31.7561818,32 32,31.7561818 32,31.4545455 C32,31.3945455 31.9841818,31.3383636 31.9661818,31.2843636 L31.9721818,31.2821818 L30.8807273,28.0094545 L30.8747273,28.0116364 C30.8027273,27.7950909 30.6041818,27.6363636 30.3636364,27.6363636 L29.8181818,27.6363636 L29.8181818,17.8181818 L31.4545455,17.8181818 Z" id="i-school"></path>
                </g>
            </g>
        </g>
    </g>
</svg>
