
<svg width="212px" height="203px" viewBox="0 0 212 203" version="1.1" xmlns="http://www.w3.org/2000/svg" xmlns:xlink="http://www.w3.org/1999/xlink">
    <!-- Generator: Sketch 47.1 (45422) - http://www.bohemiancoding.com/sketch -->
    <desc>Created with Sketch.</desc>
    <defs></defs>
    <g id="Page-1" stroke="none" stroke-width="1" fill="none" fill-rule="evenodd" stroke-linecap="round" stroke-linejoin="round">
        <g id="BoasVindas" transform="translate(-74.000000, -212.000000)" stroke="#FFFFFF" stroke-width="2">
            <g id="Icone-de-notas" transform="translate(75.000000, 213.000000)">
                <g id="Orion_news-website" transform="translate(0.000000, 45.000000)">
                    <polygon id="Shape" points="0 0 117 0 117 94 0 94"></polygon>
                    <path d="M15.75,15.792 L101.25,15.792 L101.25,31.396 L15.75,31.396 L15.75,15.792 Z M19.6363636,47 L50.7272727,47 L19.6363636,47 Z M19.6363636,62.604 L50.7272727,62.604 L19.6363636,62.604 Z M19.6363636,78.208 L50.7272727,78.208 L19.6363636,78.208 Z M66.2727273,47 L97.3636364,47 L66.2727273,47 Z M66.2727273,62.604 L97.3636364,62.604 L66.2727273,62.604 Z M66.2727273,78.208 L97.3636364,78.208 L66.2727273,78.208 Z" id="Shape"></path>
                </g>
                <g id="Orion_tribunal-(1)" transform="translate(142.000000, 0.000000)">
                    <polygon id="Shape" points="1.5 16.779661 22.5 0 43.5 16.779661"></polygon>
                    <path d="M16.5,22.8813559 L28.5,22.8813559 M19.5,22.8813559 L19.5,38.2118644 M25.5,22.8813559 L25.5,38.2118644 M33,22.8813559 L43.5,22.8813559 M34.5,22.8813559 L34.5,38.2118644 M40.5,22.8813559 L40.5,38.2118644 M1.5,22.8813559 L12,22.8813559 M4.5,22.8813559 L4.5,38.2118644 M10.5,22.8813559 L10.5,38.2118644 M1.5,38.2118644 L43.5,38.2118644 M0,44.2372881 L45,44.2372881" id="Shape"></path>
                </g>
                <g id="Orion_tribunal-(1)-Copy" transform="translate(165.000000, 76.000000)">
                    <polygon id="Shape" points="1.5 16.779661 22.5 0 43.5 16.779661"></polygon>
                    <path d="M16.5,22.8813559 L28.5,22.8813559 M19.5,22.8813559 L19.5,38.2118644 M25.5,22.8813559 L25.5,38.2118644 M33,22.8813559 L43.5,22.8813559 M34.5,22.8813559 L34.5,38.2118644 M40.5,22.8813559 L40.5,38.2118644 M1.5,22.8813559 L12,22.8813559 M4.5,22.8813559 L4.5,38.2118644 M10.5,22.8813559 L10.5,38.2118644 M1.5,38.2118644 L43.5,38.2118644 M0,44.2372881 L45,44.2372881" id="Shape"></path>
                </g>
                <g id="Orion_tribunal-(1)-Copy-2" transform="translate(119.000000, 156.000000)">
                    <polygon id="Shape" points="1.5 16.779661 22.5 0 43.5 16.779661"></polygon>
                    <path d="M16.5,22.8813559 L28.5,22.8813559 M19.5,22.8813559 L19.5,38.2118644 M25.5,22.8813559 L25.5,38.2118644 M33,22.8813559 L43.5,22.8813559 M34.5,22.8813559 L34.5,38.2118644 M40.5,22.8813559 L40.5,38.2118644 M1.5,22.8813559 L12,22.8813559 M4.5,22.8813559 L4.5,38.2118644 M10.5,22.8813559 L10.5,38.2118644 M1.5,38.2118644 L43.5,38.2118644 M0,44.2372881 L45,44.2372881" id="Shape"></path>
                </g>
            </g>
        </g>
    </g>
</svg>
