
<svg width="272px" height="201px" viewBox="0 0 272 201" version="1.1" xmlns="http://www.w3.org/2000/svg" xmlns:xlink="http://www.w3.org/1999/xlink">
    <!-- Generator: Sketch 47.1 (45422) - http://www.bohemiancoding.com/sketch -->
    <desc>Created with Sketch.</desc>
    <defs></defs>
    <g id="Page-1" stroke="none" stroke-width="1" fill="none" fill-rule="evenodd">
        <g id="BoasVindas-Copy-3" transform="translate(-44.000000, -222.000000)" stroke-width="2" stroke="#FFFFFF">
            <g id="Icone-de-comecar-estudos" transform="translate(45.000000, 223.000000)">
                <g id="Group" transform="translate(135.000000, 0.000000)" stroke-linecap="round">
                    <g id="Orion_bubble">
                        <path d="M3.6,65 L26.16,56.6944444 C29.3896539,57.4213521 32.6900506,57.7847088 36,57.7777778 C55.92,57.7777778 72,44.8981481 72,28.8888889 C72,12.8796296 55.92,0 36,0 C16.08,0 0,12.8796296 0,28.8888889 C0,36.9537037 4.2,44.2962963 10.92,49.5925926 L3.6,65 Z" id="Shape"></path>
                    </g>
                    <g id="Orion_cinema-projector" transform="translate(18.461538, 10.214286)" stroke-linejoin="round">
                        <path d="M13.3333333,26.6190476 L13.3333333,39.9285714 M12,26.6190476 L0,39.9285714 M14.6666667,26.6190476 L26.6666667,39.9285714" id="Shape"></path>
                        <polyline id="Shape" points="25.3333333 17.302381 36 13.3095238 36 26.6190476 25.3333333 22.6261905"></polyline>
                        <rect id="Rectangle-path" x="1.33333333" y="13.3095238" width="24" height="13.3095238" rx="2"></rect>
                        <ellipse id="Oval" cx="20" cy="5.32380952" rx="5.33333333" ry="5.32380952"></ellipse>
                        <ellipse id="Oval" cx="6.66666667" cy="6.6547619" rx="4" ry="3.99285714"></ellipse>
                    </g>
                </g>
                <g id="Orion_student-(1)" transform="translate(71.000000, 72.000000)" stroke-linecap="round" stroke-linejoin="round">
                    <path d="M46.5666667,82.5036496 L46.5666667,88.6777844 C46.5666667,92.9358083 47.8366667,99.1099431 24.5533333,103.580868 C1.27,108.051793 0,127 0,127 L127,127 C127,127 127,108.690497 100.753333,103.580868 C78.105,99.1099431 78.3166667,92.9358083 78.3166667,88.6777844 L78.3166667,82.929452" id="Shape"></path>
                    <path d="M29.9389664,102.666058 L63.9989252,127 L98.058884,103.089257 M75.9199107,85.3149 C83.6116153,80.231689 89.0863737,72.4466611 91.2468922,63.5201523 C97.6331345,63.5201523 99.1232577,54.4213742 99.1232577,52.3053792 C99.1232577,50.1893843 100.187631,42.5718026 93.8013891,42.3602031 L93.8013891,29.6642336 M34.1964612,29.6642336 L34.1964612,42.3602031 C27.810219,42.3602031 27.810219,51.0357823 27.810219,52.9401777 C27.810219,54.8445732 28.6617179,63.5201523 35.0479602,63.5201523 C36.9293326,72.5689124 42.4718443,80.4502845 50.3749417,85.3149" id="Shape"></path>
                    <polygon id="Shape" points="63.9635036 21.3211679 4.6350365 8.52846715 63.9635036 0 123.291971 8.52846715"></polygon>
                    <path d="M33.650365,14.7849808 L33.650365,29.6328096 L63.1755474,33.8750464 L92.7007299,29.6328096 L92.7007299,14.7849808 M8.34306569,9.27007299 L8.34306569,59.3284672" id="Shape"></path>
                </g>
                <g id="Group-2" transform="translate(53.000000, 0.000000)">
                    <g id="Orion_law" transform="translate(15.692308, 16.714286)" stroke-linejoin="round">
                        <path d="M19.8461538,5.30612245 L19.8461538,31.8367347 M13.2307692,31.8367347 L26.4615385,31.8367347 M17.2,2.65306122 L6.61538462,2.65306122 L0,15.9183673" id="Shape"></path>
                        <ellipse id="Oval" cx="19.8461538" cy="2.65306122" rx="2.64615385" ry="2.65306122"></ellipse>
                        <path d="M6.61538462,2.65306122 L13.2307692,15.9183673 M22.4923077,2.65306122 L33.0769231,2.65306122 L39.6923077,15.9183673 M33.0769231,2.65306122 L26.4615385,15.9183673" id="Shape"></path>
                        <path d="M6.61538462,22.5510204 C10.2689607,22.5510204 13.2307692,19.5814805 13.2307692,15.9183673 L0,15.9183673 C-1.46891046e-16,17.6774563 0.696976021,19.3644976 1.93760129,20.6083613 C3.17822657,21.852225 4.86087553,22.5510204 6.61538462,22.5510204 Z M33.0769231,22.5510204 C29.423347,22.5510204 26.4615385,19.5814805 26.4615385,15.9183673 L39.6923077,15.9183673 C39.6923077,19.5814805 36.7304991,22.5510204 33.0769231,22.5510204 Z" id="Shape"></path>
                    </g>
                    <g id="Orion_bubble-Copy" transform="translate(36.000000, 32.500000) scale(-1, 1) translate(-36.000000, -32.500000) " stroke-linecap="round">
                        <path d="M3.6,65 L26.16,56.6944444 C29.3896539,57.4213521 32.6900506,57.7847088 36,57.7777778 C55.92,57.7777778 72,44.8981481 72,28.8888889 C72,12.8796296 55.92,0 36,0 C16.08,0 0,12.8796296 0,28.8888889 C0,36.9537037 4.2,44.2962963 10.92,49.5925926 L3.6,65 Z" id="Shape"></path>
                    </g>
                </g>
                <g id="Group-4" transform="translate(199.000000, 33.000000)" stroke-linecap="round">
                    <g id="Orion_grape" transform="translate(19.363636, 12.057971)">
                        <path d="M0,0 C7.66582054,0 11.6936246,2.40231884 11.6936246,9.08985507 C4.87234357,9.08985507 0,7.79130435 0,0 Z M28.5844156,0 C20.918595,0 16.890791,2.40231884 16.890791,9.08985507 C23.712072,9.08985507 28.5844156,7.79130435 28.5844156,0 Z M14.2922078,0 L14.2922078,12.9855072 L14.2922078,0 Z" id="Shape"></path>
                        <ellipse id="Oval" cx="3.89787485" cy="18.1797101" rx="3.89787485" ry="3.89565217"></ellipse>
                        <ellipse id="Oval" cx="14.2922078" cy="16.8811594" rx="3.89787485" ry="3.89565217"></ellipse>
                        <ellipse id="Oval" cx="24.6865407" cy="18.1797101" rx="3.89787485" ry="3.89565217"></ellipse>
                        <ellipse id="Oval" cx="9.09504132" cy="25.9710145" rx="3.89787485" ry="3.89565217"></ellipse>
                        <ellipse id="Oval" cx="19.4893743" cy="25.9710145" rx="3.89787485" ry="3.89565217"></ellipse>
                        <ellipse id="Oval" cx="14.2922078" cy="35.0608696" rx="3.89787485" ry="3.89565217"></ellipse>
                    </g>
                    <g id="Orion_bubble-Copy-2">
                        <path d="M3.55,64 L25.7966667,55.8222222 C28.9814643,56.5379467 32.2360222,56.8957133 35.5,56.8888889 C55.1433333,56.8888889 71,44.2074074 71,28.4444444 C71,12.6814815 55.1433333,0 35.5,0 C15.8566667,0 0,12.6814815 0,28.4444444 C0,36.3851852 4.14166667,43.6148148 10.7683333,48.8296296 L3.55,64 Z" id="Shape"></path>
                    </g>
                </g>
                <g id="Group-3" transform="translate(0.000000, 48.000000)" stroke-linecap="round">
                    <g id="Orion_plane-departure" transform="translate(15.881579, 14.823529)" stroke-linejoin="round">
                        <path d="M22.0380263,5.77262443 L12.5557895,3.72013575 C10.9808041,3.47333778 9.3797334,3.97299696 8.23973684,5.06708145 C10.1361842,6.47816742 14.6484211,9.49276018 14.6484211,9.49276018" id="Shape"></path>
                        <path d="M39.2368421,4.42567873 C39.2368421,4.42567873 36.8172368,-1.98834842 29.6238158,1.86006787 L7.84736842,13.0204751 C7.16864019,13.3978039 6.31788362,13.2934993 5.75473684,12.763914 C4.97,12.1225113 2.81197368,11.4169683 1.43868421,12.1225113 L0,12.8921946 L5.88552632,18.3441176 C6.35712148,18.583748 6.9180101,18.583748 7.38960526,18.3441176 L17.3296053,13.9825792 L16.5448684,24.8864253 C18.4591996,24.3919853 20.0588851,23.1040013 20.9263158,21.3587104 C22.2342105,18.4723982 26.2232895,10.0700226 26.2232895,10.0700226 L39.2368421,4.42567873 Z" id="Shape"></path>
                    </g>
                    <g id="Orion_bubble-Copy-3" transform="translate(35.500000, 31.500000) scale(-1, 1) translate(-35.500000, -31.500000) ">
                        <path d="M3.55,63 L25.7966667,54.95 C28.9814643,55.6545413 32.2360222,56.0067177 35.5,56 C55.1433333,56 71,43.5166667 71,28 C71,12.4833333 55.1433333,0 35.5,0 C15.8566667,0 0,12.4833333 0,28 C0,35.8166667 4.14166667,42.9333333 10.7683333,48.0666667 L3.55,63 Z" id="Shape"></path>
                    </g>
                </g>
            </g>
        </g>
    </g>
</svg>
