
<svg width="272px" height="199px" viewBox="0 0 272 199" version="1.1" xmlns="http://www.w3.org/2000/svg" xmlns:xlink="http://www.w3.org/1999/xlink">
    <!-- Generator: Sketch 47.1 (45422) - http://www.bohemiancoding.com/sketch -->
    <desc>Created with Sketch.</desc>
    <defs></defs>
    <g id="Page-1" stroke="none" stroke-width="1" fill="none" fill-rule="evenodd" stroke-linecap="round" stroke-linejoin="round">
        <g id="BoasVindas-Copy-2" transform="translate(-44.000000, -221.000000)" stroke="#FFFFFF" stroke-width="2">
            <g id="Icone-de-documentos" transform="translate(45.000000, 222.000000)">
                <g id="Orion_read" transform="translate(53.000000, 0.000000)">
                    <path d="M22.2835625,133.3009 L22.2835625,125.895294 C22.2835625,125.895294 22.125,102.623179 52.805,96.746831 C72.6990625,92.9403497 73.75,88.0489473 73.75,84.0980567 L73.75,77.7588583 C66.5335625,71.3344955 62.6875,60.2186816 62.6875,48.1364361 L62.6875,29.6224222 C62.6875,9.07186681 75.4794375,0 88.6880625,0 C101.896688,0 114.3125,9.07556961 114.3125,29.6224222 L114.3125,48.1364361 C114.3125,60.248304 110.510688,71.3344955 103.25,77.7588583 L103.25,84.0536231 C103.25,88.0045136 104.5185,93.7142355 124.526875,96.7616422 C155.033563,101.390146 155.048313,125.895294 155.048313,125.895294 L155.048313,133.404579 M0,133.297197 L177,133.297197" id="Shape"></path>
                </g>
                <g id="Orion_pay" transform="translate(81.000000, 146.000000)">
                    <path d="M44.1666667,29.8965517 L53,29.8965517 L53,49.2413793 L44.1666667,49.2413793 L44.1666667,29.8965517 Z M44.1666667,45.9 C42.4,45.9 31.005,51 24.7333333,51 C21.0233333,51 17.755,49.0655172 10.6,45.7241379 C7.24333333,44.1413793 0,39.9206897 0,36.9310345 C0,33.9413793 9.62833333,37.8982759 17.755,40.4482759" id="Shape"></path>
                    <ellipse id="Oval" cx="28.355" cy="7.03448276" rx="7.06666667" ry="7.03448276"></ellipse>
                    <ellipse id="Oval" cx="15.9" cy="22.862069" rx="7.06666667" ry="7.03448276"></ellipse>
                    <path d="M30.1216667,43.9655172 L21.2883333,43.9655172 C19.3369272,43.9655172 17.755,42.3907946 17.755,40.4482759 C17.755,38.5057571 19.3369272,36.9310345 21.2883333,36.9310345 L24.8216667,36.9310345 C35.4216667,36.9310345 31.8883333,31.6551724 44.255,31.6551724" id="Shape"></path>
                </g>
                <g id="Orion_note-text" transform="translate(161.000000, 144.000000)">
                    <path d="M0,0 L42,0 L42,53 L0,53 L0,0 Z M10.5,0 L10.5,7.06666667 L10.5,0 Z M8.75,7.06666667 L12.25,7.06666667 L8.75,7.06666667 Z M21,0 L21,7.06666667 L21,0 Z M19.25,7.06666667 L22.75,7.06666667 L19.25,7.06666667 Z M31.5,0 L31.5,7.06666667 L31.5,0 Z M29.75,7.06666667 L33.25,7.06666667 L29.75,7.06666667 Z" id="Shape"></path>
                    <path d="M8.75,15.9 L33.25,15.9 M8.75,24.7333333 L33.25,24.7333333 M8.75,33.5666667 L33.25,33.5666667 M8.75,42.4 L26.25,42.4" id="Shape"></path>
                </g>
                <g id="Orion_document-envelope" transform="translate(231.000000, 144.000000)">
                    <path d="M19.5,8.83333333 L19.5,44.1666667" id="Shape"></path>
                    <polygon id="Shape" points="0 0 39 0 39 53 0 53"></polygon>
                    <path d="M0,0 L7.09090909,8.83333333 L31.9090909,8.83333333 L39,0 M0,53 L7.09090909,44.1666667 L31.9090909,44.1666667 L39,53" id="Shape"></path>
                </g>
                <g id="Orion_document-stack" transform="translate(0.000000, 151.000000)">
                    <path d="M38.8666667,28.3076923 L38.8666667,30.9615385 C38.8666667,32.4272172 37.6802213,33.6153846 36.2166667,33.6153846 L16.7833333,33.6153846 C15.3197787,33.6153846 14.1333333,32.4272172 14.1333333,30.9615385 L14.1333333,28.3076923 L0,28.3076923 L0,46 L53,46 L53,28.3076923 L38.8666667,28.3076923 Z" id="Shape"></path>
                    <path d="M3.53333333,21.2307692 L49.4666667,21.2307692 M3.53333333,14.1538462 L49.4666667,14.1538462 M3.53333333,7.07692308 L49.4666667,7.07692308 M3.53333333,0 L49.4666667,0" id="Shape"></path>
                </g>
            </g>
        </g>
    </g>
</svg>
