
<svg width="501px" height="508px" viewBox="0 0 501 508" version="1.1" xmlns="http://www.w3.org/2000/svg" xmlns:xlink="http://www.w3.org/1999/xlink">
    <!-- Generator: Sketch 48.2 (47327) - http://www.bohemiancoding.com/sketch -->
    <desc>Created with Sketch.</desc>
    <defs></defs>
    <g id="Page-1" stroke="none" stroke-width="1" fill="none" fill-rule="evenodd">
        <g id="Group-3">
            <path d="M500.441843,254.287604 C500.441843,113.847582 388.418328,0 250.221605,0 C112.031713,0 0.00136639038,113.562911 0.00136639038,253.99599 C0.00136639038,394.442955 112.031713,507.998922 250.221605,507.998922 L475.833151,507.998922 L412.521454,447.502857 C466.316242,400.858468 500.441843,331.780612 500.441843,254.287604 Z" id="Fill-26" fill="#05869B" fill-rule="nonzero"></path>
            <g id="Group" transform="translate(195.901759, 256.000000) rotate(-90.000000) translate(-195.901759, -256.000000) translate(25.235092, 215.578947)" fill="#FFFFFF">
                <path d="M106.100355,53.8947368 C107.098164,49.5882789 107.628856,45.07351 107.628856,40.4210526 C107.628856,35.7685953 107.098164,31.2538263 106.100355,26.9473684 L331.812168,26.9473684 C333.002021,31.1616529 333.649454,35.6967017 333.649454,40.4210526 C333.649454,45.1454036 333.002021,49.6804524 331.812168,53.8947368 L106.100355,53.8947368 Z M101.138131,67.3684211 L325.427755,67.3684211 C319.515481,75.6378861 310.923619,80.8421053 301.360797,80.8421053 L91.2036856,80.8421053 C95.1335089,76.9891197 98.4971188,72.4399857 101.138131,67.3684211 Z M101.138131,13.4736842 C98.4971188,8.40211951 95.1335089,3.85298553 91.2036856,-6.57252031e-14 L301.360797,0 C310.923619,0 319.515481,5.20421914 325.427755,13.4736842 L101.138131,13.4736842 Z" id="Combined-Shape"></path>
                <path d="M0,40.4210526 C10.4146042,34.4211939 31.9403754,20.9475097 64.5773136,0 C83.123595,0 97.0498136,19.6440281 97.0498136,40.4210526 C97.0498136,61.1980772 83.7220143,80.8421053 64.5773136,80.8421053 C31.1078923,60.3851693 9.58212114,46.9114851 0,40.4210526 Z" id="Triangle"></path>
            </g>
            <g id="Group-2" transform="translate(288.820513, 107.789474)">
                <rect id="Rectangle-4" fill="#FFFFFF" x="0" y="107.789474" width="91.8974359" height="26.9473684"></rect>
                <ellipse id="Oval-3" fill="#FFFFFF" cx="45.9487179" cy="47.1578947" rx="45.9487179" ry="47.1578947"></ellipse>
                <ellipse id="Oval-3-Copy" fill="#05869B" cx="45.5" cy="47.3552632" rx="32.5" ry="33.3552632"></ellipse>
            </g>
        </g>
    </g>
</svg>
